<svg width="18" height="12" viewBox="0 0 18 12" fill="none" xmlns="http://www.w3.org/2000/svg">
<path d="M12.375 0.75C12.9963 0.75 13.5 1.08579 13.5 1.5V10.5C13.5 10.9142 12.9963 11.25 12.375 11.25H5.625C5.00368 11.25 4.5 10.9142 4.5 10.5V1.5C4.5 1.08579 5.00368 0.75 5.625 0.75H12.375ZM5.625 0C4.38236 0 3.375 0.671573 3.375 1.5V10.5C3.375 11.3284 4.38236 12 5.625 12H12.375C13.6176 12 14.625 11.3284 14.625 10.5V1.5C14.625 0.671573 13.6176 0 12.375 0H5.625Z" fill="white"/>
<path d="M9 10.5C9.62132 10.5 10.125 10.1642 10.125 9.75C10.125 9.33579 9.62132 9 9 9C8.37868 9 7.875 9.33579 7.875 9.75C7.875 10.1642 8.37868 10.5 9 10.5Z" fill="white"/>
</svg>
