<svg width="12" height="12" viewBox="0 0 12 12" fill="none" xmlns="http://www.w3.org/2000/svg">
<path d="M1.875 11.5C1.875 11.2239 2.04289 11 2.25 11L9.75 11C9.95711 11 10.125 11.2239 10.125 11.5C10.125 11.7761 9.95711 12 9.75 12L2.25 12C2.04289 12 1.875 11.7761 1.875 11.5Z" fill="white"/>
<path d="M10.4932 1C10.4962 1.00016 10.5023 1.00053 10.511 1.00136C10.5321 1.00337 10.5671 1.00787 10.6111 1.01764C10.7026 1.03798 10.8131 1.07678 10.9146 1.14443C11.0131 1.21011 11.0888 1.29294 11.1416 1.39845C11.1912 1.4977 11.25 1.67498 11.25 2L11.25 7.99097C11.2499 7.99496 11.2496 8.00303 11.249 8.01469C11.2475 8.04279 11.2441 8.08947 11.2368 8.1481C11.2215 8.27011 11.1924 8.4175 11.1417 8.55279C11.0924 8.68416 11.0303 8.78511 10.9512 8.85545C10.8767 8.92162 10.7438 9 10.5 9L1.50677 9C1.50378 8.99984 1.49772 8.99947 1.48898 8.99864C1.46791 8.99663 1.4329 8.99213 1.38892 8.98236C1.29742 8.96202 1.18687 8.92322 1.08541 8.85557C0.986883 8.78989 0.91117 8.70706 0.858413 8.60155C0.808785 8.50229 0.75 8.32502 0.75 8L0.75 2.00902C0.750117 2.00504 0.750399 1.99696 0.751024 1.98531C0.752529 1.95721 0.755904 1.91053 0.763233 1.8519C0.778484 1.72989 0.807588 1.5825 0.85832 1.44721C0.907584 1.31584 0.969702 1.21489 1.04884 1.14455C1.12328 1.07838 1.25624 1 1.5 1L10.4932 1ZM10.5 0L1.5 0C0 0 0 2 0 2L0 8C0 10 1.5 10 1.5 10L10.5 10C12 10 12 8 12 8L12 2C12 0 10.5 0 10.5 0Z" fill="white"/>
</svg>
