<svg width="14" height="9" viewBox="0 0 14 9" fill="none" xmlns="http://www.w3.org/2000/svg">
<path d="M7.82353 0.244658C7.30882 0.0681871 6.69118 0.068187 6.17647 0.244658L0.926471 2.04466C0.35621 2.24018 0 2.62183 0 3.0373V3.21365L5.86997 5.4254L7 5.02181L8.13003 5.4254L14 3.21365V3.03731C14 2.62183 13.6438 2.24018 13.0735 2.04466L7.82353 0.244658Z" fill="white"/>
<path d="M14 3.86565L9.0184 5.74267L14 7.52181V3.86565Z" fill="white"/>
<path d="M13.9485 8.14689L7 5.66529L0.0515269 8.14689C0.240791 8.63675 0.929444 8.99981 1.75 8.99981H12.25C13.0706 8.99981 13.7592 8.63675 13.9485 8.14689Z" fill="white"/>
<path d="M0 7.52181L4.9816 5.74267L0 3.86565V7.52181Z" fill="white"/>
</svg>
