<svg width="14" height="12" viewBox="0 0 14 12" fill="none" xmlns="http://www.w3.org/2000/svg">
<path d="M7 0.8C3.77834 0.8 1.16667 2.59086 1.16667 4.8V5.6H2.33333C2.97767 5.6 3.5 5.95817 3.5 6.4V8.8C3.5 9.24183 2.97767 9.6 2.33333 9.6H1.16667C0.522334 9.6 0 9.24183 0 8.8V4.8C0 2.14903 3.13401 0 7 0C10.866 0 14 2.14903 14 4.8V9.6C14 10.7046 12.6942 11.6 11.0833 11.6H8.59392C8.3922 11.8391 8.01516 12 7.58333 12H6.41667C5.77233 12 5.25 11.6418 5.25 11.2C5.25 10.7582 5.77233 10.4 6.41667 10.4H7.58333C8.01517 10.4 8.3922 10.5609 8.59392 10.8H11.0833C12.0498 10.8 12.8333 10.2627 12.8333 9.6H11.6667C11.0223 9.6 10.5 9.24183 10.5 8.8V6.4C10.5 5.95817 11.0223 5.6 11.6667 5.6H12.8333V4.8C12.8333 2.59086 10.2217 0.8 7 0.8Z" fill="white"/>
</svg>
