<svg width="15" height="15" viewBox="0 0 15 15" fill="none" xmlns="http://www.w3.org/2000/svg">
<path d="M9.6875 3.11408C9.6875 4.80859 8.26041 6.18226 6.5 6.18226C4.73959 6.18226 3.3125 4.80859 3.3125 3.11408C3.3125 1.41957 4.73959 0.0458984 6.5 0.0458984C8.26041 0.0458984 9.6875 1.41957 9.6875 3.11408ZM6.5 5.15954C7.67361 5.15954 8.625 4.24375 8.625 3.11408C8.625 1.98441 7.67361 1.06863 6.5 1.06863C5.3264 1.06863 4.375 1.98441 4.375 3.11408C4.375 4.24375 5.3264 5.15954 6.5 5.15954Z" fill="#0754BE"/>
<path d="M6.77206 12.3186C6.65209 11.9919 6.56935 11.6482 6.52877 11.2923H1.1875C1.18901 11.0399 1.35086 10.2839 2.0716 9.5901C2.76463 8.92302 4.06781 8.22772 6.49999 8.22772C6.77677 8.22772 7.03893 8.23672 7.28723 8.25366C7.52646 7.90457 7.81376 7.58869 8.14006 7.31476C7.6444 7.24403 7.09924 7.20499 6.5 7.20499C1.1875 7.20499 0.125 10.2732 0.125 11.2959C0.125 12.3186 1.1875 12.3186 1.1875 12.3186H6.77206Z" fill="#0754BE"/>
<path d="M10.6283 7.67498C10.8202 7.04833 11.7423 7.04833 11.9342 7.67498L11.9807 7.82695C12.1033 8.22735 12.5785 8.41679 12.9593 8.21711L13.1038 8.14133C13.6999 7.82882 14.3519 8.45645 14.0273 9.03017L13.9485 9.1693C13.7411 9.53588 13.9379 9.99322 14.3539 10.1112L14.5117 10.156C15.1628 10.3407 15.1628 11.2283 14.5117 11.413L14.3539 11.4578C13.9379 11.5759 13.7411 12.0332 13.9485 12.3998L14.0273 12.5389C14.3519 13.1126 13.6999 13.7402 13.1038 13.4277L12.9593 13.352C12.5785 13.1523 12.1033 13.3417 11.9807 13.7421L11.9342 13.8941C11.7423 14.5207 10.8202 14.5207 10.6283 13.8941L10.5818 13.7421C10.4592 13.3417 9.98404 13.1523 9.6032 13.352L9.45866 13.4277C8.86263 13.7402 8.21059 13.1126 8.53525 12.5389L8.61398 12.3998C8.82142 12.0332 8.62462 11.5759 8.20865 11.4578L8.05077 11.413C7.39975 11.2283 7.39975 10.3407 8.05077 10.156L8.20865 10.1112C8.62462 9.99322 8.82143 9.53588 8.61398 9.1693L8.53525 9.03017C8.21059 8.45646 8.86263 7.82882 9.45866 8.14133L9.6032 8.21711C9.98404 8.41679 10.4592 8.22735 10.5818 7.82695L10.6283 7.67498ZM12.875 10.7845C12.875 9.93728 12.1615 9.25044 11.2813 9.25044C10.401 9.25044 9.6875 9.93728 9.6875 10.7845C9.6875 11.6318 10.401 12.3186 11.2813 12.3186C12.1615 12.3186 12.875 11.6318 12.875 10.7845Z" fill="#0754BE"/>
</svg>
